<svg width="38" height="38" viewBox="0 0 38 38" fill="none" xmlns="http://www.w3.org/2000/svg">
<rect x="-0.59375" y="0.59375" width="36.8125" height="36.8125" rx="18.4062" transform="matrix(-1 0 0 1 36.8125 0)" fill="white"/>
<path fill-rule="evenodd" clip-rule="evenodd" d="M20.5507 12.1584L14.5271 18.3158C14.1574 18.6937 14.1574 19.3063 14.5271 19.6842L20.5507 25.8416C20.9203 26.2195 21.5196 26.2195 21.8893 25.8416C22.2589 25.4638 22.2589 24.8511 21.8893 24.4733L16.5349 19L21.8893 13.5267C22.2589 13.1489 22.2589 12.5362 21.8893 12.1584C21.5196 11.7805 20.9203 11.7805 20.5507 12.1584Z" fill="#06892B"/>
<rect x="-0.59375" y="0.59375" width="36.8125" height="36.8125" rx="18.4062" transform="matrix(-1 0 0 1 36.8125 0)" stroke="#06892B" stroke-width="1.1875"/>
</svg>
