<svg width="95" height="94" viewBox="0 0 95 94" fill="none" xmlns="http://www.w3.org/2000/svg">
<g clip-path="url(#clip0_17136_1747)">
<circle cx="47.5" cy="47" r="47" fill="#EDF9F0"/>
<path d="M68.7632 49.2884L68.7601 53.5482C68.7592 54.6214 68.4489 55.6171 67.9227 56.4706C67.7475 56.7542 67.5487 57.0228 67.3284 57.2735L67.3251 62.0725C67.3251 62.4648 67.2443 62.8384 67.1 63.1785C66.6651 64.1994 65.6492 64.9173 64.466 64.9204L61.609 64.9282C60.0312 64.9328 58.753 63.6643 58.7539 62.0959L58.7559 59.2558L35.899 59.3165L35.8969 62.1566C35.8961 63.725 34.6156 65 33.0379 65.0045L30.1808 65.0123C28.9977 65.0155 27.9827 64.3027 27.5498 63.2846C27.4057 62.9449 27.3256 62.5714 27.3258 62.18L27.3291 57.381C27.1088 57.1314 26.9103 56.8636 26.7355 56.5806C26.2108 55.7305 25.9017 54.7361 25.9026 53.6629L25.9055 49.4023C25.9073 47.5828 26.7729 45.9693 28.115 44.9303C28.5662 44.5808 29.0671 44.2999 29.6012 44.097L30.6067 41.6006L32.3899 37.1735C32.5813 36.6986 32.805 36.2443 33.0601 35.8137C33.5684 34.9522 34.1964 34.1815 34.9172 33.5219C35.2779 33.1916 35.6617 32.889 36.0658 32.6168C36.8744 32.0704 37.7639 31.6428 38.7077 31.3513C39.6514 31.0598 40.651 30.904 41.6789 30.9013L53.0185 30.8709C54.0464 30.8682 55.0451 31.0185 55.9891 31.3057C57.3976 31.7334 58.6914 32.4682 59.7764 33.4564C60.857 34.4409 61.7268 35.6731 62.2979 37.095L64.0744 41.5127L65.0765 44.0038C66.145 44.4051 67.0679 45.1141 67.7277 46.0402C68.3801 46.9561 68.7644 48.0755 68.7632 49.2884ZM33.0499 47.9639C31.3353 47.9685 30.1921 49.1037 30.1903 50.8027C30.1885 52.5018 31.331 53.6304 33.0447 53.626C34.7594 53.6214 37.3304 53.8982 37.3313 52.1993C37.3331 50.5003 34.7637 47.9595 33.0499 47.9639ZM58.7668 43.6348L56.9903 39.2171C56.8281 38.8133 56.6077 38.4445 56.3415 38.1183C55.5418 37.1401 54.3276 36.5462 53.0132 36.5497L41.6735 36.58C40.817 36.5824 39.9799 36.8397 39.2703 37.319C38.5606 37.7982 38.0109 38.4773 37.6921 39.2686L35.909 43.6957L51.8074 43.6528L58.7668 43.6348ZM61.621 47.8876C59.9064 47.8922 57.333 50.4474 57.3318 52.1454C57.3309 53.8442 59.9021 53.5541 61.6167 53.5495C63.3313 53.5449 64.4745 52.4097 64.4763 50.7106C64.4775 49.0126 63.3356 47.883 61.621 47.8876Z" fill="#06892B"/>
</g>
<defs>
<clipPath id="clip0_17136_1747">
<rect width="94" height="94" fill="white" transform="translate(0.5)"/>
</clipPath>
</defs>
</svg>
