<svg width="95" height="94" viewBox="0 0 95 94" fill="none" xmlns="http://www.w3.org/2000/svg">
<g clip-path="url(#clip0_17136_1716)">
<circle cx="47.5" cy="47" r="47" fill="#EDF9F0"/>
<path d="M68.2334 45.9681L68.2303 50.2279C68.2294 51.3011 67.9191 52.2968 67.3929 53.1503C67.2177 53.4339 67.0189 53.7025 66.7986 53.9532L66.7953 58.7522C66.7954 59.1445 66.7146 59.5181 66.5702 59.8582C66.1353 60.8791 65.1194 61.597 63.9362 61.6001L61.0792 61.6079C59.5014 61.6125 58.2232 60.344 58.2241 58.7756L58.2261 55.9355L35.3692 55.9962L35.3672 58.8363C35.3663 60.4047 34.0858 61.6797 32.5081 61.6842L29.651 61.692C28.4679 61.6952 27.4529 60.9824 27.02 59.9643C26.8759 59.6246 26.7958 59.2511 26.796 58.8597L26.7993 54.0607C26.5791 53.811 26.3805 53.5433 26.2057 53.2603C25.681 52.4102 25.3719 51.4158 25.3728 50.3425L25.3757 46.0819C25.3775 44.2625 26.2431 42.6489 27.5852 41.61C28.0364 41.2605 28.5373 40.9796 29.0714 40.7767L30.077 38.2803L31.8601 33.8532C32.0515 33.3783 32.2752 32.924 32.5303 32.4934C33.0386 31.6319 33.6666 30.8612 34.3874 30.2016C34.7481 29.8713 35.132 29.5687 35.536 29.2965C36.3446 28.7501 37.2341 28.3225 38.1779 28.031C39.1216 27.7395 40.1212 27.5837 41.1491 27.581L52.4888 27.5506C53.5166 27.5479 54.5153 27.6982 55.4593 27.9854C56.8678 28.4131 58.1616 29.1478 59.2466 30.1361C60.3272 31.1206 61.197 32.3528 61.7681 33.7747L63.5446 38.1924L64.5467 40.6835C65.6152 41.0848 66.5381 41.7938 67.1979 42.7199C67.8503 43.6358 68.2346 44.7552 68.2334 45.9681ZM32.5201 44.6436C30.8055 44.6482 29.6623 45.7834 29.6605 47.4824C29.6587 49.1815 30.8012 50.3101 32.515 50.3057C34.2296 50.3011 36.8006 50.5779 36.8015 48.879C36.8033 47.1799 34.2339 44.6392 32.5201 44.6436ZM58.237 40.3145L56.4605 35.8968C56.2983 35.493 56.0779 35.1242 55.8117 34.798C55.0121 33.8198 53.7978 33.2258 52.4834 33.2294L41.1437 33.2597C40.2872 33.262 39.4501 33.5194 38.7405 33.9986C38.0308 34.4779 37.4812 35.157 37.1624 35.9483L35.3792 40.3754L51.2776 40.3325L58.237 40.3145ZM61.0912 44.5673C59.3766 44.5719 56.8032 47.127 56.8021 48.825C56.8011 50.5239 59.3723 50.2338 61.0869 50.2292C62.8015 50.2246 63.9448 49.0894 63.9466 47.3903C63.9477 45.6923 62.8058 44.5627 61.0912 44.5673Z" fill="#06892B"/>
<ellipse cx="61.7946" cy="56.0558" rx="15.2941" ry="15.2941" fill="#EDF9F0"/>
<path d="M67.8633 55.6356C67.8633 53.9352 67.259 52.4807 66.0503 51.2721C64.8417 50.0634 63.3872 49.4591 61.6868 49.4591C59.9865 49.4591 58.532 50.0634 57.3233 51.2721C56.1147 52.4807 55.5104 53.9352 55.5104 55.6356C55.5104 57.3359 56.1147 58.7904 57.3233 59.9991C58.532 61.2077 59.9865 61.812 61.6868 61.812C63.3872 61.812 64.8417 61.2077 66.0503 59.9991C67.259 58.7904 67.8633 57.3359 67.8633 55.6356ZM74.9221 67.1062C74.9221 67.5841 74.7475 67.9977 74.3982 68.347C74.049 68.6962 73.6354 68.8709 73.1574 68.8709C72.6611 68.8709 72.2475 68.6962 71.9166 68.347L67.1878 63.6319C65.5425 64.7716 63.7089 65.3415 61.6868 65.3415C60.3725 65.3415 59.1156 65.0864 57.9162 64.5763C56.7167 64.0662 55.6827 63.3768 54.8141 62.5083C53.9456 61.6397 53.2562 60.6057 52.7461 59.4062C52.236 58.2068 51.981 56.9499 51.981 55.6356C51.981 54.3212 52.236 53.0643 52.7461 51.8649C53.2562 50.6654 53.9456 49.6314 54.8141 48.7629C55.6827 47.8943 56.7167 47.205 57.9162 46.6949C59.1156 46.1847 60.3725 45.9297 61.6868 45.9297C63.0012 45.9297 64.2581 46.1847 65.4575 46.6949C66.657 47.205 67.691 47.8943 68.5595 48.7629C69.4281 49.6314 70.1174 50.6654 70.6276 51.8649C71.1377 53.0643 71.3927 54.3212 71.3927 55.6356C71.3927 57.6576 70.8229 59.4913 69.6832 61.1365L74.412 65.8653C74.7521 66.2054 74.9221 66.619 74.9221 67.1062Z" fill="#06892B"/>
</g>
<defs>
<clipPath id="clip0_17136_1716">
<rect width="94" height="94" fill="white" transform="translate(0.5)"/>
</clipPath>
</defs>
</svg>
