<svg width="53" height="32" viewBox="0 0 53 32" fill="none" xmlns="http://www.w3.org/2000/svg">
<path fill-rule="evenodd" clip-rule="evenodd" d="M6.43707 23.5145C6.43707 20.1537 8.84676 18.7674 11.0028 18.7674C13.1588 18.7674 15.6954 20.2798 15.6954 23.5145C15.6954 26.7493 12.8629 27.8836 11.1296 27.8836C9.39634 27.8836 6.43707 26.8753 6.43707 23.5145ZM13.6662 23.5145C13.6662 22.0442 12.4824 20.7419 11.0874 20.7419C9.52317 20.7419 8.42401 21.8761 8.42401 23.5145C8.42401 25.1529 10.1573 25.8671 11.1296 25.8671C12.102 25.8671 13.6662 24.9849 13.6662 23.5145Z" fill="white"/>
<path fill-rule="evenodd" clip-rule="evenodd" d="M0.560791 19.0193C1.03991 18.0671 2.65765 16.045 5.29563 15.5745C7.93361 15.104 14.3426 13.9501 17.2173 13.432C19.3451 11.7236 23.9729 8.2143 25.461 7.84461C26.546 7.67657 28.2089 7.59266 31.5486 7.59255C32.8169 4.11971 33.9921 -1.59087 28.5471 3.34953C28.8571 2.60738 30.0352 0.929839 32.2673 0.156852C34.4995 -0.616135 34.9448 1.65522 34.8884 2.88751C34.3247 6.69644 31.1343 16.8265 22.8822 26.8753C23.2908 26.1332 24.0913 24.5648 24.0236 24.2287H16.2872C16.7945 22.2962 15.4248 17.9272 11.1296 17.9272C6.52162 17.9272 5.46473 22.0022 5.67611 24.0607H1.70223C1.39221 23.3884 0.729892 21.439 0.560791 19.0193ZM1.99815 18.4313C1.69377 18.8346 1.87133 19.3275 1.99815 19.5236L5.54928 18.8934C6.22569 17.5491 7.46577 16.7089 8.00125 16.4568C2.54773 16.9189 2.37863 17.9272 1.99815 18.4313ZM24.0659 10.0293L18.401 13.9782L28.5471 14.1463L31.0836 8.76897C30.4354 8.78297 28.8007 8.80257 27.4479 8.76897C26.0951 8.73536 24.6296 9.59517 24.0659 10.0293Z" fill="white"/>
<path d="M35.5225 5.15609C33.1974 16.7089 20.1681 36.3864 18.4433 27.7156C18.1896 29.746 18.7223 33.2525 22.8822 31.0344C23.8122 30.4602 26.3149 28.3541 28.8853 24.5228H42.8362L47.9937 18.7254C48.2897 18.4033 48.9069 17.5575 49.0084 16.7509L47.8246 16.6249C47.6133 17.045 46.9876 17.8852 46.1759 17.8852C45.1613 17.8852 44.6963 17.213 44.6963 16.2048C44.6963 15.1965 45.5418 14.7344 46.1759 14.7344C46.6832 14.7344 47.261 15.1825 47.4864 15.4066C47.0073 15.4346 45.9138 15.7427 45.3727 16.7509C45.4431 16.9329 45.6601 17.3138 45.9645 17.3811C46.2182 16.5689 47.3765 15.3057 49.9807 16.7509C53.2359 18.5573 51.3758 20.6158 51.0798 20.8679C50.7839 21.12 49.1775 21.7921 47.2751 20.5318L46.7678 21.0359C47.6696 21.7081 49.8877 22.7163 51.5449 21.372C53.6164 19.6916 52.0099 17.6331 51.3335 16.9189C50.7924 16.3476 49.5579 15.6726 49.0084 15.4066C48.908 14.7386 46.963 12.6132 42.7093 8.0968H35.5225V5.15609Z" fill="#48D16F"/>
</svg>
