<svg width="95" height="95" viewBox="0 0 95 95" fill="none" xmlns="http://www.w3.org/2000/svg">
<g clip-path="url(#clip0_17136_1729)">
<circle cx="47.5" cy="47.5" r="47" fill="#EDF9F0"/>
<path d="M45.3167 69.6689C46.0019 70.0332 46.8619 70.0308 47.547 69.6666C66.2196 59.6812 67.5457 40.1721 67.5294 34.6249C67.5276 34.179 67.3953 33.7434 67.1485 33.3713C66.9018 32.9992 66.5515 32.7068 66.1404 32.5299L47.3792 24.2567C47.0807 24.1257 46.7579 24.0582 46.4316 24.0586C46.1053 24.059 45.7827 24.1273 45.4845 24.259L26.8539 32.5322C26.4488 32.7092 26.1034 32.9984 25.8588 33.3653C25.6142 33.7322 25.4807 34.1614 25.4742 34.6017C25.3949 40.121 26.5113 59.6719 45.3167 69.6689ZM38.7585 43.0791L44.1025 48.3989L54.1076 38.439L57.403 41.7195L44.1025 54.9599L35.463 46.3596L38.7585 43.0791Z" fill="#06892B"/>
</g>
<defs>
<clipPath id="clip0_17136_1729">
<rect width="94" height="94" fill="white" transform="translate(0.5 0.5)"/>
</clipPath>
</defs>
</svg>
