<svg width="24" height="12" viewBox="0 0 24 12" fill="none" xmlns="http://www.w3.org/2000/svg">
<path d="M22.3849 1.60901C21.8756 1.09775 21.27 0.692357 20.6033 0.416206C19.9365 0.140055 19.2216 -0.00139324 18.4999 1.46547e-05C17.0295 -0.00335661 15.6175 0.575057 14.5719 1.60901L11.9999 4.09201L9.42795 1.61001C8.65854 0.841367 7.67853 0.31808 6.61178 0.1063C5.54503 -0.10548 4.43944 0.00375405 3.43476 0.420195C2.43008 0.836636 1.57142 1.54159 0.967313 2.44594C0.363204 3.35029 0.0407715 4.41345 0.0407715 5.50102C0.0407715 6.58858 0.363204 7.65174 0.967313 8.55609C1.57142 9.46044 2.43008 10.1654 3.43476 10.5818C4.43944 10.9983 5.54503 11.1075 6.61178 10.8957C7.67853 10.6839 8.65854 10.1607 9.42795 9.39201L11.9999 6.83001L14.5719 9.39201C15.0809 9.91416 15.6883 10.3302 16.3591 10.616C17.0299 10.9019 17.7507 11.0518 18.4798 11.0572C19.2089 11.0626 19.9318 10.9234 20.6068 10.6475C21.2817 10.3716 21.8953 9.96465 22.4119 9.45009C22.9285 8.93554 23.3379 8.32364 23.6164 7.6498C23.895 6.97596 24.0371 6.25357 24.0346 5.52444C24.0321 4.7953 23.885 4.07391 23.6018 3.402C23.3187 2.73009 22.9051 2.12101 22.3849 1.61001V1.60901ZM8.01495 7.98301C7.35178 8.64046 6.45576 9.00933 5.52194 9.00933C4.58813 9.00933 3.69211 8.64046 3.02895 7.98301C2.38013 7.32 2.01945 6.42755 2.0254 5.49991C2.03135 4.57227 2.40346 3.68452 3.06073 3.02989C3.718 2.37525 4.60724 2.00672 5.53489 2.00449C6.46255 2.00227 7.35354 2.36654 8.01395 3.01801L10.4999 5.49201L8.01495 7.98301ZM20.9709 7.98301C20.3081 8.64064 19.4122 9.00965 18.4784 9.00965C17.5447 9.00965 16.6488 8.64064 15.9859 7.98301L13.4999 5.49301L15.9859 3.01701C16.6491 2.35987 17.5449 1.99119 18.4784 1.99119C19.412 1.99119 20.3078 2.35987 20.9709 3.01701C21.2975 3.3427 21.5566 3.72962 21.7334 4.15562C21.9102 4.58161 22.0012 5.03829 22.0012 5.49952C22.0012 5.96074 21.9102 6.41742 21.7334 6.84341C21.5566 7.26941 21.2975 7.65633 20.9709 7.98202V7.98301Z" fill="#2E3D4A"/>
</svg>
