<svg width="95" height="94" viewBox="0 0 95 94" fill="none" xmlns="http://www.w3.org/2000/svg">
<g clip-path="url(#clip0_17136_1738)">
<circle cx="47.5" cy="47" r="47" fill="#EDF9F0"/>
<path fill-rule="evenodd" clip-rule="evenodd" d="M33.4453 29.6226C31.2056 31.8624 31.2056 35.4672 31.2056 42.6769V50.324C31.2056 57.5337 31.2056 61.1386 33.4453 63.3783C35.6851 65.6181 39.29 65.6181 46.4997 65.6181C48.94 65.6181 50.9674 65.6181 52.6686 65.5312C49.574 63.9489 47.4556 60.7294 47.4556 57.0152C47.4556 51.736 51.7352 47.4563 57.0144 47.4563C58.7555 47.4563 60.3878 47.9218 61.7938 48.7351V42.6769C61.7938 35.4672 61.7938 31.8624 59.554 29.6226C57.3143 27.3828 53.7094 27.3828 46.4997 27.3828C39.29 27.3828 35.6851 27.3828 33.4453 29.6226ZM36.941 35.0303C36.941 33.9745 37.797 33.1186 38.8528 33.1186H46.4999C47.5557 33.1186 48.4116 33.9745 48.4116 35.0303C48.4116 36.0862 47.5557 36.9421 46.4999 36.9421H38.8528C37.797 36.9421 36.941 36.0862 36.941 35.0303ZM36.941 42.6774C36.941 41.6216 37.797 40.7656 38.8528 40.7656L50.3234 40.7656C51.3792 40.7656 52.2352 41.6216 52.2352 42.6774C52.2352 43.7332 51.3792 44.5892 50.3234 44.5892H38.8528C37.797 44.5892 36.941 43.7332 36.941 42.6774ZM36.941 50.3244C36.941 49.2686 37.797 48.4127 38.8528 48.4127H44.5881C45.6439 48.4127 46.4999 49.2686 46.4999 50.3244C46.4999 51.3803 45.6439 52.2362 44.5881 52.2362H38.8528C37.797 52.2362 36.941 51.3803 36.941 50.3244ZM54.1471 57.0138C54.1471 55.43 55.431 54.1461 57.0148 54.1461C58.5985 54.1461 59.8824 55.43 59.8824 57.0138C59.8824 58.5975 58.5985 59.8814 57.0148 59.8814C55.431 59.8814 54.1471 58.5975 54.1471 57.0138ZM57.0148 50.3226C53.3193 50.3226 50.3236 53.3184 50.3236 57.0138C50.3236 60.7092 53.3193 63.705 57.0148 63.705C58.1671 63.705 59.2514 63.4137 60.198 62.9007L62.3541 65.0568C63.1007 65.8034 64.3112 65.8034 65.0578 65.0568C65.8044 64.3102 65.8044 63.0997 65.0578 62.3531L62.9017 60.1971C63.4146 59.2504 63.7059 58.1661 63.7059 57.0138C63.7059 53.3184 60.7102 50.3226 57.0148 50.3226Z" fill="#06892B"/>
</g>
<defs>
<clipPath id="clip0_17136_1738">
<rect width="94" height="94" fill="white" transform="translate(0.5)"/>
</clipPath>
</defs>
</svg>
