<svg width="31" height="31" viewBox="0 0 31 31" fill="none" xmlns="http://www.w3.org/2000/svg">
<path d="M25.5015 17.0181L25.4999 19.2462C25.4994 19.8076 25.3371 20.3284 25.0619 20.7749C24.9702 20.9232 24.8662 21.0637 24.751 21.1949L24.7493 23.7051C24.7493 23.9103 24.707 24.1057 24.6315 24.2836C24.404 24.8177 23.8726 25.1932 23.2538 25.1948L21.7593 25.1989C20.934 25.2013 20.2654 24.5378 20.2659 23.7174L20.2669 22.2318L8.31099 22.2635L8.30994 23.7491C8.30948 24.5695 7.63971 25.2364 6.81443 25.2388L5.31996 25.2429C4.70108 25.2445 4.17019 24.8717 3.94373 24.3391C3.86836 24.1614 3.82646 23.9661 3.82655 23.7614L3.82827 21.2511C3.71308 21.1205 3.60922 20.9805 3.51778 20.8324C3.24335 20.3878 3.08167 19.8676 3.08212 19.3062L3.08363 17.0776C3.08458 16.1259 3.53737 15.2819 4.23938 14.7384C4.4754 14.5556 4.73741 14.4087 5.01676 14.3025L5.54276 12.9967L6.47548 10.681C6.57558 10.4326 6.69262 10.195 6.82607 9.96974C7.09193 9.5191 7.42042 9.116 7.79744 8.77097C7.98611 8.59817 8.18691 8.43988 8.39828 8.2975C8.82122 8.01171 9.28652 7.78805 9.78016 7.63558C10.2738 7.48311 10.7967 7.40158 11.3343 7.40017L17.2659 7.38429C17.8035 7.38288 18.3259 7.46149 18.8197 7.61172C19.5564 7.83545 20.2332 8.21976 20.8007 8.73671C21.366 9.25165 21.8209 9.89621 22.1197 10.64L23.0489 12.9508L23.5731 14.2538C24.132 14.4637 24.6147 14.8345 24.9599 15.319C25.3011 15.7981 25.5022 16.3836 25.5015 17.0181ZM6.82072 16.3252C5.92384 16.3276 5.32585 16.9214 5.32491 17.8102C5.32396 18.6989 5.92159 19.2892 6.81802 19.287C7.7149 19.2846 9.05973 19.4293 9.06022 18.5407C9.06117 17.6519 7.71715 16.3229 6.82072 16.3252ZM20.2726 14.0608L19.3434 11.75C19.2585 11.5388 19.1433 11.3458 19.004 11.1752C18.5857 10.6635 17.9506 10.3529 17.2631 10.3547L11.3315 10.3706C10.8835 10.3718 10.4456 10.5064 10.0744 10.7571C9.70325 11.0078 9.41572 11.363 9.24896 11.7769L8.31625 14.0926L16.6323 14.0702L20.2726 14.0608ZM21.7656 16.2853C20.8687 16.2877 19.5227 17.6243 19.522 18.5124C19.5215 19.4011 20.8665 19.2493 21.7633 19.2469C22.6602 19.2445 23.2582 18.6507 23.2592 17.762C23.2598 16.8738 22.6625 16.2829 21.7656 16.2853Z" fill="#06892B"/>
<circle cx="22.3562" cy="8.76758" r="8.5" fill="white"/>
<path d="M28.6272 8.66602C28.6272 12.1876 25.7728 15.041 22.2522 15.041C18.7316 15.041 15.8772 12.1876 15.8772 8.66602C15.8772 5.14648 18.7316 2.29102 22.2522 2.29102C25.7728 2.29102 28.6272 5.14648 28.6272 8.66602ZM22.2522 9.9513C21.5991 9.9513 21.0697 10.4807 21.0697 11.1338C21.0697 11.7868 21.5991 12.3162 22.2522 12.3162C22.9052 12.3162 23.4347 11.7868 23.4347 11.1338C23.4347 10.4807 22.9052 9.9513 22.2522 9.9513ZM21.1296 5.70097L21.3202 9.19694C21.3292 9.36053 21.4644 9.4886 21.6282 9.4886H22.8762C23.04 9.4886 23.1752 9.36053 23.1842 9.19694L23.3748 5.70097C23.3845 5.52427 23.2438 5.37569 23.0668 5.37569H21.4375C21.2606 5.37569 21.1199 5.52427 21.1296 5.70097Z" fill="#06892B"/>
</svg>
