<svg width="20" height="20" viewBox="0 0 20 20" fill="none" xmlns="http://www.w3.org/2000/svg">
<path d="M14.633 18.1241C14.3917 18.123 14.1557 18.0525 13.9533 17.921L10.008 15.4288H9.9924L6.32834 17.7491C6.09164 17.8984 5.81577 17.9738 5.53602 17.9654C5.25628 17.9571 4.98539 17.8654 4.75802 17.7022C4.5246 17.5306 4.34782 17.2931 4.25037 17.0203C4.15292 16.7474 4.13926 16.4517 4.21115 16.171L5.26584 12.0225C5.26915 12.0117 5.26945 12.0001 5.2667 11.9891C5.26394 11.9781 5.25825 11.9681 5.25021 11.96L1.71896 9.02254C1.51773 8.8544 1.37148 8.62983 1.29907 8.37779C1.22666 8.12575 1.23141 7.8578 1.31271 7.60848C1.39093 7.36237 1.5417 7.14564 1.74524 6.98671C1.94879 6.82778 2.1956 6.73407 2.45334 6.71786L7.06271 6.42098C7.06952 6.42016 7.07599 6.41756 7.08148 6.41345C7.08696 6.40934 7.09127 6.40385 7.09396 6.39754L8.81271 2.06161C8.90549 1.82204 9.06855 1.61614 9.28048 1.47094C9.49242 1.32575 9.74331 1.24805 10.0002 1.24805C10.2571 1.24805 10.508 1.32575 10.7199 1.47094C10.9319 1.61614 11.0949 1.82204 11.1877 2.06161L12.9065 6.39754C12.9092 6.40385 12.9135 6.40934 12.9189 6.41345C12.9244 6.41756 12.9309 6.42016 12.9377 6.42098L17.5471 6.71786C17.8048 6.73407 18.0516 6.82778 18.2552 6.98671C18.4587 7.14564 18.6095 7.36237 18.6877 7.60848C18.769 7.8578 18.7738 8.12575 18.7014 8.37779C18.6289 8.62983 18.4827 8.8544 18.2815 9.02254L14.7502 11.96C14.7422 11.9681 14.7365 11.9781 14.7337 11.9891C14.731 12.0001 14.7313 12.0117 14.7346 12.0225L15.8674 16.4991C15.9347 16.7523 15.9236 17.02 15.8358 17.2668C15.7479 17.5137 15.5873 17.7281 15.3752 17.8819C15.1581 18.0361 14.8993 18.1205 14.633 18.1241V18.1241ZM10.0002 14.1788C10.2409 14.1771 10.4769 14.2449 10.6799 14.3741L14.6174 16.8663H14.633C14.6431 16.8611 14.6513 16.8529 14.6565 16.8429C14.6643 16.835 14.6643 16.8272 14.6565 16.796L13.5237 12.3194C13.4622 12.0808 13.4692 11.8296 13.5438 11.5947C13.6184 11.3599 13.7576 11.1507 13.9455 10.9913L17.4846 8.05379C17.4924 8.04598 17.508 8.03036 17.4924 7.99129C17.4768 7.95223 17.4768 7.96004 17.469 7.96004L12.8518 7.66317C12.6101 7.64574 12.3784 7.56016 12.1834 7.41635C11.9884 7.27254 11.8382 7.07639 11.7502 6.85067L10.0236 2.52254C10.0158 2.49911 10.008 2.49911 10.0002 2.49911C9.9924 2.49911 9.98459 2.49911 9.97677 2.52254L8.25021 6.85848C8.1622 7.08421 8.012 7.28035 7.81702 7.42416C7.62205 7.56797 7.3903 7.65356 7.14865 7.67098L2.53146 7.96786C2.52365 7.96786 2.51584 7.96786 2.50802 7.99911C2.50021 8.03036 2.50802 8.05379 2.51584 8.06161L6.0549 10.9991C6.24282 11.1586 6.38205 11.3677 6.45665 11.6026C6.53126 11.8374 6.53824 12.0886 6.47677 12.3272L5.42209 16.4835C5.41265 16.5205 5.41429 16.5595 5.42679 16.5956C5.43928 16.6317 5.4621 16.6633 5.4924 16.6866C5.51419 16.7075 5.54281 16.7198 5.57297 16.7212C5.60312 16.7227 5.63278 16.7132 5.65646 16.6944L9.32052 14.3741C9.52356 14.2449 9.75957 14.1771 10.0002 14.1788Z" fill="#FFBB0C"/>
</svg>
