<svg width="25" height="24" viewBox="0 0 25 24" fill="none" xmlns="http://www.w3.org/2000/svg">
<g clip-path="url(#clip0_17199_1980)">
<path d="M12.179 12C11.079 12 10.179 11.1 10.179 10C10.179 8.9 11.079 8 12.179 8C13.279 8 14.179 8.9 14.179 10C14.179 11.1 13.279 12 12.179 12ZM18.179 10.2C18.179 6.57 15.529 4 12.179 4C8.82896 4 6.17896 6.57 6.17896 10.2C6.17896 12.54 8.12895 15.64 12.179 19.34C16.229 15.64 18.179 12.54 18.179 10.2ZM12.179 2C16.379 2 20.179 5.22 20.179 10.2C20.179 13.52 17.509 17.45 12.179 22C6.84896 17.45 4.17896 13.52 4.17896 10.2C4.17896 5.22 7.97896 2 12.179 2Z" fill="#2E3D4A"/>
</g>
<defs>
<clipPath id="clip0_17199_1980">
<rect width="24" height="24" fill="white" transform="translate(0.178955)"/>
</clipPath>
</defs>
</svg>
