<svg viewBox="0 0 100 100" xmlns="http://www.w3.org/2000/svg" xmlns:xlink="http://www.w3.org/1999/xlink">

    <style>:root>svg{display:none}:root>svg:target{display:block}</style>

    <svg id="approval" viewBox="0 0 22 22" xmlns="http://www.w3.org/2000/svg">
        <path fill-rule="evenodd" clip-rule="evenodd" d="M11 0C4.925 0 0 4.925 0 11C0 17.075 4.925 22 11 22C17.075 22 22 17.075 22 11C22 4.925 17.075 0 11 0ZM15.768 9.14C15.8558 9.03964 15.9226 8.92274 15.9646 8.79617C16.0065 8.6696 16.0227 8.53591 16.0123 8.40298C16.0018 8.27005 15.9648 8.14056 15.9036 8.02213C15.8423 7.90369 15.758 7.79871 15.6555 7.71334C15.5531 7.62798 15.4346 7.56396 15.3071 7.52506C15.1796 7.48616 15.0455 7.47316 14.9129 7.48683C14.7802 7.50049 14.6517 7.54055 14.5347 7.60463C14.4178 7.66872 14.3149 7.75554 14.232 7.86L9.932 13.019L7.707 10.793C7.5184 10.6108 7.2658 10.51 7.0036 10.5123C6.7414 10.5146 6.49059 10.6198 6.30518 10.8052C6.11977 10.9906 6.0146 11.2414 6.01233 11.5036C6.01005 11.7658 6.11084 12.0184 6.293 12.207L9.293 15.207C9.39126 15.3052 9.50889 15.3818 9.63842 15.4321C9.76794 15.4823 9.9065 15.505 10.0453 15.4986C10.184 15.4923 10.32 15.4572 10.4444 15.3954C10.5688 15.3337 10.6791 15.2467 10.768 15.14L15.768 9.14Z"/>
    </svg>

    <svg id="arrowr" viewBox="0 0 38 38" xmlns="http://www.w3.org/2000/svg" fill="white">
        <rect x="0.59375" y="0.59375" width="36.8125" height="36.8125" rx="18.4062" stroke="#06892B" stroke-width="1.1875"/>
        <path fill-rule="evenodd" clip-rule="evenodd" d="M17.4493 12.1584L23.4729 18.3158C23.8426 18.6937 23.8426 19.3063 23.4729 19.6842L17.4493 25.8416C17.0797 26.2195 16.4804 26.2195 16.1107 25.8416C15.7411 25.4638 15.7411 24.8511 16.1107 24.4733L21.4651 19L16.1107 13.5267C15.7411 13.1489 15.7411 12.5362 16.1107 12.1584C16.4804 11.7805 17.0797 11.7805 17.4493 12.1584Z" fill="#06892B"/>
    </svg>

    <svg id="simplearrow" viewBox="0 0 14 9" xmlns="http://www.w3.org/2000/svg" fill="none">
        <path d="M13.25 1.11914L7 7.36914L0.75 1.11914" stroke-width="1.5" stroke-linecap="round" stroke-linejoin="round"/>
    </svg>

    <svg id="car" viewBox="0 0 95 94" fill="none" xmlns="http://www.w3.org/2000/svg">
        <g clip-path="url(#clip0_17136_1747)">
        <circle cx="47.5" cy="47" r="47" fill="#EDF9F0"/>
        <path d="M68.7632 49.2884L68.7601 53.5482C68.7592 54.6214 68.4489 55.6171 67.9227 56.4706C67.7475 56.7542 67.5487 57.0228 67.3284 57.2735L67.3251 62.0725C67.3251 62.4648 67.2443 62.8384 67.1 63.1785C66.6651 64.1994 65.6492 64.9173 64.466 64.9204L61.609 64.9282C60.0312 64.9328 58.753 63.6643 58.7539 62.0959L58.7559 59.2558L35.899 59.3165L35.8969 62.1566C35.8961 63.725 34.6156 65 33.0379 65.0045L30.1808 65.0123C28.9977 65.0155 27.9827 64.3027 27.5498 63.2846C27.4057 62.9449 27.3256 62.5714 27.3258 62.18L27.3291 57.381C27.1088 57.1314 26.9103 56.8636 26.7355 56.5806C26.2108 55.7305 25.9017 54.7361 25.9026 53.6629L25.9055 49.4023C25.9073 47.5828 26.7729 45.9693 28.115 44.9303C28.5662 44.5808 29.0671 44.2999 29.6012 44.097L30.6067 41.6006L32.3899 37.1735C32.5813 36.6986 32.805 36.2443 33.0601 35.8137C33.5684 34.9522 34.1964 34.1815 34.9172 33.5219C35.2779 33.1916 35.6617 32.889 36.0658 32.6168C36.8744 32.0704 37.7639 31.6428 38.7077 31.3513C39.6514 31.0598 40.651 30.904 41.6789 30.9013L53.0185 30.8709C54.0464 30.8682 55.0451 31.0185 55.9891 31.3057C57.3976 31.7334 58.6914 32.4682 59.7764 33.4564C60.857 34.4409 61.7268 35.6731 62.2979 37.095L64.0744 41.5127L65.0765 44.0038C66.145 44.4051 67.0679 45.1141 67.7277 46.0402C68.3801 46.9561 68.7644 48.0755 68.7632 49.2884ZM33.0499 47.9639C31.3353 47.9685 30.1921 49.1037 30.1903 50.8027C30.1885 52.5018 31.331 53.6304 33.0447 53.626C34.7594 53.6214 37.3304 53.8982 37.3313 52.1993C37.3331 50.5003 34.7637 47.9595 33.0499 47.9639ZM58.7668 43.6348L56.9903 39.2171C56.8281 38.8133 56.6077 38.4445 56.3415 38.1183C55.5418 37.1401 54.3276 36.5462 53.0132 36.5497L41.6735 36.58C40.817 36.5824 39.9799 36.8397 39.2703 37.319C38.5606 37.7982 38.0109 38.4773 37.6921 39.2686L35.909 43.6957L51.8074 43.6528L58.7668 43.6348ZM61.621 47.8876C59.9064 47.8922 57.333 50.4474 57.3318 52.1454C57.3309 53.8442 59.9021 53.5541 61.6167 53.5495C63.3313 53.5449 64.4745 52.4097 64.4763 50.7106C64.4775 49.0126 63.3356 47.883 61.621 47.8876Z" fill="#06892B"/>
        </g>
        <defs>
        <clipPath id="clip0_17136_1747">
        <rect width="94" height="94" fill="white" transform="translate(0.5)"/>
        </clipPath>
        </defs>
    </svg>

    <svg id="carloop" viewBox="0 0 95 94" fill="none" xmlns="http://www.w3.org/2000/svg">
        <g clip-path="url(#clip0_17136_1716)">
        <circle cx="47.5" cy="47" r="47" fill="#EDF9F0"/>
        <path d="M68.2334 45.9681L68.2303 50.2279C68.2294 51.3011 67.9191 52.2968 67.3929 53.1503C67.2177 53.4339 67.0189 53.7025 66.7986 53.9532L66.7953 58.7522C66.7954 59.1445 66.7146 59.5181 66.5702 59.8582C66.1353 60.8791 65.1194 61.597 63.9362 61.6001L61.0792 61.6079C59.5014 61.6125 58.2232 60.344 58.2241 58.7756L58.2261 55.9355L35.3692 55.9962L35.3672 58.8363C35.3663 60.4047 34.0858 61.6797 32.5081 61.6842L29.651 61.692C28.4679 61.6952 27.4529 60.9824 27.02 59.9643C26.8759 59.6246 26.7958 59.2511 26.796 58.8597L26.7993 54.0607C26.5791 53.811 26.3805 53.5433 26.2057 53.2603C25.681 52.4102 25.3719 51.4158 25.3728 50.3425L25.3757 46.0819C25.3775 44.2625 26.2431 42.6489 27.5852 41.61C28.0364 41.2605 28.5373 40.9796 29.0714 40.7767L30.077 38.2803L31.8601 33.8532C32.0515 33.3783 32.2752 32.924 32.5303 32.4934C33.0386 31.6319 33.6666 30.8612 34.3874 30.2016C34.7481 29.8713 35.132 29.5687 35.536 29.2965C36.3446 28.7501 37.2341 28.3225 38.1779 28.031C39.1216 27.7395 40.1212 27.5837 41.1491 27.581L52.4888 27.5506C53.5166 27.5479 54.5153 27.6982 55.4593 27.9854C56.8678 28.4131 58.1616 29.1478 59.2466 30.1361C60.3272 31.1206 61.197 32.3528 61.7681 33.7747L63.5446 38.1924L64.5467 40.6835C65.6152 41.0848 66.5381 41.7938 67.1979 42.7199C67.8503 43.6358 68.2346 44.7552 68.2334 45.9681ZM32.5201 44.6436C30.8055 44.6482 29.6623 45.7834 29.6605 47.4824C29.6587 49.1815 30.8012 50.3101 32.515 50.3057C34.2296 50.3011 36.8006 50.5779 36.8015 48.879C36.8033 47.1799 34.2339 44.6392 32.5201 44.6436ZM58.237 40.3145L56.4605 35.8968C56.2983 35.493 56.0779 35.1242 55.8117 34.798C55.0121 33.8198 53.7978 33.2258 52.4834 33.2294L41.1437 33.2597C40.2872 33.262 39.4501 33.5194 38.7405 33.9986C38.0308 34.4779 37.4812 35.157 37.1624 35.9483L35.3792 40.3754L51.2776 40.3325L58.237 40.3145ZM61.0912 44.5673C59.3766 44.5719 56.8032 47.127 56.8021 48.825C56.8011 50.5239 59.3723 50.2338 61.0869 50.2292C62.8015 50.2246 63.9448 49.0894 63.9466 47.3903C63.9477 45.6923 62.8058 44.5627 61.0912 44.5673Z" fill="#06892B"/>
        <ellipse cx="61.7946" cy="56.0558" rx="15.2941" ry="15.2941" fill="#EDF9F0"/>
        <path d="M67.8633 55.6356C67.8633 53.9352 67.259 52.4807 66.0503 51.2721C64.8417 50.0634 63.3872 49.4591 61.6868 49.4591C59.9865 49.4591 58.532 50.0634 57.3233 51.2721C56.1147 52.4807 55.5104 53.9352 55.5104 55.6356C55.5104 57.3359 56.1147 58.7904 57.3233 59.9991C58.532 61.2077 59.9865 61.812 61.6868 61.812C63.3872 61.812 64.8417 61.2077 66.0503 59.9991C67.259 58.7904 67.8633 57.3359 67.8633 55.6356ZM74.9221 67.1062C74.9221 67.5841 74.7475 67.9977 74.3982 68.347C74.049 68.6962 73.6354 68.8709 73.1574 68.8709C72.6611 68.8709 72.2475 68.6962 71.9166 68.347L67.1878 63.6319C65.5425 64.7716 63.7089 65.3415 61.6868 65.3415C60.3725 65.3415 59.1156 65.0864 57.9162 64.5763C56.7167 64.0662 55.6827 63.3768 54.8141 62.5083C53.9456 61.6397 53.2562 60.6057 52.7461 59.4062C52.236 58.2068 51.981 56.9499 51.981 55.6356C51.981 54.3212 52.236 53.0643 52.7461 51.8649C53.2562 50.6654 53.9456 49.6314 54.8141 48.7629C55.6827 47.8943 56.7167 47.205 57.9162 46.6949C59.1156 46.1847 60.3725 45.9297 61.6868 45.9297C63.0012 45.9297 64.2581 46.1847 65.4575 46.6949C66.657 47.205 67.691 47.8943 68.5595 48.7629C69.4281 49.6314 70.1174 50.6654 70.6276 51.8649C71.1377 53.0643 71.3927 54.3212 71.3927 55.6356C71.3927 57.6576 70.8229 59.4913 69.6832 61.1365L74.412 65.8653C74.7521 66.2054 74.9221 66.619 74.9221 67.1062Z" fill="#06892B"/>
        </g>
        <defs>
        <clipPath id="clip0_17136_1716">
        <rect width="94" height="94" fill="white" transform="translate(0.5)"/>
        </clipPath>
        </defs>
    </svg>


    <svg id="guard" viewBox="0 0 95 95" fill="none" xmlns="http://www.w3.org/2000/svg">
        <g clip-path="url(#clip0_17136_1729)">
        <circle cx="47.5" cy="47.5" r="47" fill="#EDF9F0"/>
        <path d="M45.3167 69.6689C46.0019 70.0332 46.8619 70.0308 47.547 69.6666C66.2196 59.6812 67.5457 40.1721 67.5294 34.6249C67.5276 34.179 67.3953 33.7434 67.1485 33.3713C66.9018 32.9992 66.5515 32.7068 66.1404 32.5299L47.3792 24.2567C47.0807 24.1257 46.7579 24.0582 46.4316 24.0586C46.1053 24.059 45.7827 24.1273 45.4845 24.259L26.8539 32.5322C26.4488 32.7092 26.1034 32.9984 25.8588 33.3653C25.6142 33.7322 25.4807 34.1614 25.4742 34.6017C25.3949 40.121 26.5113 59.6719 45.3167 69.6689ZM38.7585 43.0791L44.1025 48.3989L54.1076 38.439L57.403 41.7195L44.1025 54.9599L35.463 46.3596L38.7585 43.0791Z" fill="#06892B"/>
        </g>
        <defs>
        <clipPath id="clip0_17136_1729">
        <rect width="94" height="94" fill="white" transform="translate(0.5 0.5)"/>
        </clipPath>
        </defs>
    </svg>

    <svg id="list" viewBox="0 0 95 94" fill="none" xmlns="http://www.w3.org/2000/svg">
        <g clip-path="url(#clip0_17136_1738)">
        <circle cx="47.5" cy="47" r="47" fill="#EDF9F0"/>
        <path fill-rule="evenodd" clip-rule="evenodd" d="M33.4453 29.6226C31.2056 31.8624 31.2056 35.4672 31.2056 42.6769V50.324C31.2056 57.5337 31.2056 61.1386 33.4453 63.3783C35.6851 65.6181 39.29 65.6181 46.4997 65.6181C48.94 65.6181 50.9674 65.6181 52.6686 65.5312C49.574 63.9489 47.4556 60.7294 47.4556 57.0152C47.4556 51.736 51.7352 47.4563 57.0144 47.4563C58.7555 47.4563 60.3878 47.9218 61.7938 48.7351V42.6769C61.7938 35.4672 61.7938 31.8624 59.554 29.6226C57.3143 27.3828 53.7094 27.3828 46.4997 27.3828C39.29 27.3828 35.6851 27.3828 33.4453 29.6226ZM36.941 35.0303C36.941 33.9745 37.797 33.1186 38.8528 33.1186H46.4999C47.5557 33.1186 48.4116 33.9745 48.4116 35.0303C48.4116 36.0862 47.5557 36.9421 46.4999 36.9421H38.8528C37.797 36.9421 36.941 36.0862 36.941 35.0303ZM36.941 42.6774C36.941 41.6216 37.797 40.7656 38.8528 40.7656L50.3234 40.7656C51.3792 40.7656 52.2352 41.6216 52.2352 42.6774C52.2352 43.7332 51.3792 44.5892 50.3234 44.5892H38.8528C37.797 44.5892 36.941 43.7332 36.941 42.6774ZM36.941 50.3244C36.941 49.2686 37.797 48.4127 38.8528 48.4127H44.5881C45.6439 48.4127 46.4999 49.2686 46.4999 50.3244C46.4999 51.3803 45.6439 52.2362 44.5881 52.2362H38.8528C37.797 52.2362 36.941 51.3803 36.941 50.3244ZM54.1471 57.0138C54.1471 55.43 55.431 54.1461 57.0148 54.1461C58.5985 54.1461 59.8824 55.43 59.8824 57.0138C59.8824 58.5975 58.5985 59.8814 57.0148 59.8814C55.431 59.8814 54.1471 58.5975 54.1471 57.0138ZM57.0148 50.3226C53.3193 50.3226 50.3236 53.3184 50.3236 57.0138C50.3236 60.7092 53.3193 63.705 57.0148 63.705C58.1671 63.705 59.2514 63.4137 60.198 62.9007L62.3541 65.0568C63.1007 65.8034 64.3112 65.8034 65.0578 65.0568C65.8044 64.3102 65.8044 63.0997 65.0578 62.3531L62.9017 60.1971C63.4146 59.2504 63.7059 58.1661 63.7059 57.0138C63.7059 53.3184 60.7102 50.3226 57.0148 50.3226Z" fill="#06892B"/>
        </g>
        <defs>
        <clipPath id="clip0_17136_1738">
        <rect width="94" height="94" fill="white" transform="translate(0.5)"/>
        </clipPath>
        </defs>
    </svg>

    <svg id="cross" viewBox="0 0 19 19" fill="none" xmlns="http://www.w3.org/2000/svg">
        <line x1="2.27408" y1="1.57812" x2="17.4064" y2="16.7105" stroke="#999999" stroke-width="2" stroke-linecap="round"/>
        <line x1="1.85986" y1="17.0116" x2="16.9922" y2="1.87921" stroke="#999999" stroke-width="2" stroke-linecap="round"/>
    </svg>

    <svg id="footerlogo" viewBox="0 0 53 32" fill="none" xmlns="http://www.w3.org/2000/svg">
        <path fill-rule="evenodd" clip-rule="evenodd" d="M6.43707 23.5145C6.43707 20.1537 8.84676 18.7674 11.0028 18.7674C13.1588 18.7674 15.6954 20.2798 15.6954 23.5145C15.6954 26.7493 12.8629 27.8836 11.1296 27.8836C9.39634 27.8836 6.43707 26.8753 6.43707 23.5145ZM13.6662 23.5145C13.6662 22.0442 12.4824 20.7419 11.0874 20.7419C9.52317 20.7419 8.42401 21.8761 8.42401 23.5145C8.42401 25.1529 10.1573 25.8671 11.1296 25.8671C12.102 25.8671 13.6662 24.9849 13.6662 23.5145Z" fill="white"/>
        <path fill-rule="evenodd" clip-rule="evenodd" d="M0.560791 19.0193C1.03991 18.0671 2.65765 16.045 5.29563 15.5745C7.93361 15.104 14.3426 13.9501 17.2173 13.432C19.3451 11.7236 23.9729 8.2143 25.461 7.84461C26.546 7.67657 28.2089 7.59266 31.5486 7.59255C32.8169 4.11971 33.9921 -1.59087 28.5471 3.34953C28.8571 2.60738 30.0352 0.929839 32.2673 0.156852C34.4995 -0.616135 34.9448 1.65522 34.8884 2.88751C34.3247 6.69644 31.1343 16.8265 22.8822 26.8753C23.2908 26.1332 24.0913 24.5648 24.0236 24.2287H16.2872C16.7945 22.2962 15.4248 17.9272 11.1296 17.9272C6.52162 17.9272 5.46473 22.0022 5.67611 24.0607H1.70223C1.39221 23.3884 0.729892 21.439 0.560791 19.0193ZM1.99815 18.4313C1.69377 18.8346 1.87133 19.3275 1.99815 19.5236L5.54928 18.8934C6.22569 17.5491 7.46577 16.7089 8.00125 16.4568C2.54773 16.9189 2.37863 17.9272 1.99815 18.4313ZM24.0659 10.0293L18.401 13.9782L28.5471 14.1463L31.0836 8.76897C30.4354 8.78297 28.8007 8.80257 27.4479 8.76897C26.0951 8.73536 24.6296 9.59517 24.0659 10.0293Z" fill="white"/>
        <path d="M35.5225 5.15609C33.1974 16.7089 20.1681 36.3864 18.4433 27.7156C18.1896 29.746 18.7223 33.2525 22.8822 31.0344C23.8122 30.4602 26.3149 28.3541 28.8853 24.5228H42.8362L47.9937 18.7254C48.2897 18.4033 48.9069 17.5575 49.0084 16.7509L47.8246 16.6249C47.6133 17.045 46.9876 17.8852 46.1759 17.8852C45.1613 17.8852 44.6963 17.213 44.6963 16.2048C44.6963 15.1965 45.5418 14.7344 46.1759 14.7344C46.6832 14.7344 47.261 15.1825 47.4864 15.4066C47.0073 15.4346 45.9138 15.7427 45.3727 16.7509C45.4431 16.9329 45.6601 17.3138 45.9645 17.3811C46.2182 16.5689 47.3765 15.3057 49.9807 16.7509C53.2359 18.5573 51.3758 20.6158 51.0798 20.8679C50.7839 21.12 49.1775 21.7921 47.2751 20.5318L46.7678 21.0359C47.6696 21.7081 49.8877 22.7163 51.5449 21.372C53.6164 19.6916 52.0099 17.6331 51.3335 16.9189C50.7924 16.3476 49.5579 15.6726 49.0084 15.4066C48.908 14.7386 46.963 12.6132 42.7093 8.0968H35.5225V5.15609Z" fill="#48D16F"/>
    </svg>

    <svg id="star" viewBox="0 0 20 20" fill="none" xmlns="http://www.w3.org/2000/svg">
        <path d="M17.2815 8.02344L13.7502 10.9609L14.8674 15.5C14.9188 15.6903 14.9258 15.8898 14.888 16.0832C14.8502 16.2766 14.7686 16.4588 14.6494 16.6157C14.5302 16.7727 14.3766 16.9002 14.2004 16.9884C14.0242 17.0767 13.8301 17.1235 13.633 17.125C13.3917 17.1239 13.1557 17.0534 12.9533 16.9219L9.00803 14.4297H8.9924L5.32834 16.75C5.09164 16.8993 4.81577 16.9746 4.53602 16.9663C4.25628 16.9579 3.98539 16.8663 3.75802 16.7031C3.52378 16.5322 3.34637 16.2948 3.24884 16.0217C3.15131 15.7486 3.13818 15.4525 3.21115 15.1719L4.26584 11.0234L0.718961 8.02344C0.517731 7.85529 0.371483 7.63072 0.299074 7.37868C0.226665 7.12664 0.231415 6.85869 0.312711 6.60938C0.391877 6.36383 0.542904 6.14768 0.746253 5.9889C0.949603 5.83012 1.19592 5.73601 1.45334 5.71875L6.06271 5.42188L7.81271 1.0625C7.90656 0.823753 8.06992 0.618675 8.28164 0.473816C8.49336 0.328956 8.74368 0.250987 9.00021 0.25C9.25674 0.250987 9.50707 0.328956 9.71879 0.473816C9.9305 0.618675 10.0939 0.823753 10.1877 1.0625L11.9065 5.39844L16.5471 5.71875C16.8048 5.73496 17.0516 5.82868 17.2552 5.98761C17.4587 6.14654 17.6095 6.36327 17.6877 6.60938C17.769 6.85869 17.7738 7.12664 17.7014 7.37868C17.6289 7.63072 17.4827 7.85529 17.2815 8.02344Z" fill="#FFBB0C"/>
    </svg>

    <svg id="nostar" viewBox="0 0 20 20" fill="none" xmlns="http://www.w3.org/2000/svg">
        <path d="M14.633 18.1241C14.3917 18.123 14.1557 18.0525 13.9533 17.921L10.008 15.4288H9.9924L6.32834 17.7491C6.09164 17.8984 5.81577 17.9738 5.53602 17.9654C5.25628 17.9571 4.98539 17.8654 4.75802 17.7022C4.5246 17.5306 4.34782 17.2931 4.25037 17.0203C4.15292 16.7474 4.13926 16.4517 4.21115 16.171L5.26584 12.0225C5.26915 12.0117 5.26945 12.0001 5.2667 11.9891C5.26394 11.9781 5.25825 11.9681 5.25021 11.96L1.71896 9.02254C1.51773 8.8544 1.37148 8.62983 1.29907 8.37779C1.22666 8.12575 1.23141 7.8578 1.31271 7.60848C1.39093 7.36237 1.5417 7.14564 1.74524 6.98671C1.94879 6.82778 2.1956 6.73407 2.45334 6.71786L7.06271 6.42098C7.06952 6.42016 7.07599 6.41756 7.08148 6.41345C7.08696 6.40934 7.09127 6.40385 7.09396 6.39754L8.81271 2.06161C8.90549 1.82204 9.06855 1.61614 9.28048 1.47094C9.49242 1.32575 9.74331 1.24805 10.0002 1.24805C10.2571 1.24805 10.508 1.32575 10.7199 1.47094C10.9319 1.61614 11.0949 1.82204 11.1877 2.06161L12.9065 6.39754C12.9092 6.40385 12.9135 6.40934 12.9189 6.41345C12.9244 6.41756 12.9309 6.42016 12.9377 6.42098L17.5471 6.71786C17.8048 6.73407 18.0516 6.82778 18.2552 6.98671C18.4587 7.14564 18.6095 7.36237 18.6877 7.60848C18.769 7.8578 18.7738 8.12575 18.7014 8.37779C18.6289 8.62983 18.4827 8.8544 18.2815 9.02254L14.7502 11.96C14.7422 11.9681 14.7365 11.9781 14.7337 11.9891C14.731 12.0001 14.7313 12.0117 14.7346 12.0225L15.8674 16.4991C15.9347 16.7523 15.9236 17.02 15.8358 17.2668C15.7479 17.5137 15.5873 17.7281 15.3752 17.8819C15.1581 18.0361 14.8993 18.1205 14.633 18.1241V18.1241ZM10.0002 14.1788C10.2409 14.1771 10.4769 14.2449 10.6799 14.3741L14.6174 16.8663H14.633C14.6431 16.8611 14.6513 16.8529 14.6565 16.8429C14.6643 16.835 14.6643 16.8272 14.6565 16.796L13.5237 12.3194C13.4622 12.0808 13.4692 11.8296 13.5438 11.5947C13.6184 11.3599 13.7576 11.1507 13.9455 10.9913L17.4846 8.05379C17.4924 8.04598 17.508 8.03036 17.4924 7.99129C17.4768 7.95223 17.4768 7.96004 17.469 7.96004L12.8518 7.66317C12.6101 7.64574 12.3784 7.56016 12.1834 7.41635C11.9884 7.27254 11.8382 7.07639 11.7502 6.85067L10.0236 2.52254C10.0158 2.49911 10.008 2.49911 10.0002 2.49911C9.9924 2.49911 9.98459 2.49911 9.97677 2.52254L8.25021 6.85848C8.1622 7.08421 8.012 7.28035 7.81702 7.42416C7.62205 7.56797 7.3903 7.65356 7.14865 7.67098L2.53146 7.96786C2.52365 7.96786 2.51584 7.96786 2.50802 7.99911C2.50021 8.03036 2.50802 8.05379 2.51584 8.06161L6.0549 10.9991C6.24282 11.1586 6.38205 11.3677 6.45665 11.6026C6.53126 11.8374 6.53824 12.0886 6.47677 12.3272L5.42209 16.4835C5.41265 16.5205 5.41429 16.5595 5.42679 16.5956C5.43928 16.6317 5.4621 16.6633 5.4924 16.6866C5.51419 16.7075 5.54281 16.7198 5.57297 16.7212C5.60312 16.7227 5.63278 16.7132 5.65646 16.6944L9.32052 14.3741C9.52356 14.2449 9.75957 14.1771 10.0002 14.1788Z" fill="#FFBB0C"/>
    </svg>

    <svg id="infinity" viewBox="0 0 24 12" fill="none" xmlns="http://www.w3.org/2000/svg">
        <path d="M22.3849 1.60901C21.8756 1.09775 21.27 0.692357 20.6033 0.416206C19.9365 0.140055 19.2216 -0.00139324 18.4999 1.46547e-05C17.0295 -0.00335661 15.6175 0.575057 14.5719 1.60901L11.9999 4.09201L9.42795 1.61001C8.65854 0.841367 7.67853 0.31808 6.61178 0.1063C5.54503 -0.10548 4.43944 0.00375405 3.43476 0.420195C2.43008 0.836636 1.57142 1.54159 0.967313 2.44594C0.363204 3.35029 0.0407715 4.41345 0.0407715 5.50102C0.0407715 6.58858 0.363204 7.65174 0.967313 8.55609C1.57142 9.46044 2.43008 10.1654 3.43476 10.5818C4.43944 10.9983 5.54503 11.1075 6.61178 10.8957C7.67853 10.6839 8.65854 10.1607 9.42795 9.39201L11.9999 6.83001L14.5719 9.39201C15.0809 9.91416 15.6883 10.3302 16.3591 10.616C17.0299 10.9019 17.7507 11.0518 18.4798 11.0572C19.2089 11.0626 19.9318 10.9234 20.6068 10.6475C21.2817 10.3716 21.8953 9.96465 22.4119 9.45009C22.9285 8.93554 23.3379 8.32364 23.6164 7.6498C23.895 6.97596 24.0371 6.25357 24.0346 5.52444C24.0321 4.7953 23.885 4.07391 23.6018 3.402C23.3187 2.73009 22.9051 2.12101 22.3849 1.61001V1.60901ZM8.01495 7.98301C7.35178 8.64046 6.45576 9.00933 5.52194 9.00933C4.58813 9.00933 3.69211 8.64046 3.02895 7.98301C2.38013 7.32 2.01945 6.42755 2.0254 5.49991C2.03135 4.57227 2.40346 3.68452 3.06073 3.02989C3.718 2.37525 4.60724 2.00672 5.53489 2.00449C6.46255 2.00227 7.35354 2.36654 8.01395 3.01801L10.4999 5.49201L8.01495 7.98301ZM20.9709 7.98301C20.3081 8.64064 19.4122 9.00965 18.4784 9.00965C17.5447 9.00965 16.6488 8.64064 15.9859 7.98301L13.4999 5.49301L15.9859 3.01701C16.6491 2.35987 17.5449 1.99119 18.4784 1.99119C19.412 1.99119 20.3078 2.35987 20.9709 3.01701C21.2975 3.3427 21.5566 3.72962 21.7334 4.15562C21.9102 4.58161 22.0012 5.03829 22.0012 5.49952C22.0012 5.96074 21.9102 6.41742 21.7334 6.84341C21.5566 7.26941 21.2975 7.65633 20.9709 7.98202V7.98301Z" fill="#2E3D4A"/>
    </svg>

    <svg id="line" viewBox="0 0 120 2" fill="none" xmlns="http://www.w3.org/2000/svg">
        <line y1="1" x2="120" y2="1" stroke="#CCCCCC" stroke-width="2" stroke-dasharray="8 8"/>
    </svg>

    <svg id="logo" viewBox="0 0 50 30" fill="none" xmlns="http://www.w3.org/2000/svg">
        <path fill-rule="evenodd" clip-rule="evenodd" d="M6.35503 22.1047C6.35503 18.9803 8.59523 17.6914 10.5996 17.6914C12.604 17.6914 14.9621 19.0974 14.9621 22.1047C14.9621 25.1119 12.3289 26.1664 10.7175 26.1664C9.10616 26.1664 6.35503 25.2291 6.35503 22.1047ZM13.0756 22.1047C13.0756 20.7378 11.9752 19.527 10.6782 19.527C9.22406 19.527 8.20222 20.5815 8.20222 22.1047C8.20222 23.6278 9.81359 24.2918 10.7175 24.2918C11.6215 24.2918 13.0756 23.4716 13.0756 22.1047Z" fill="#2E3D4A"/>
        <path fill-rule="evenodd" clip-rule="evenodd" d="M0.89209 17.9257C1.33751 17.0404 2.84146 15.1606 5.29389 14.7231C7.74632 14.2857 13.7045 13.213 16.377 12.7313C18.3552 11.1431 22.6574 7.88066 24.0408 7.53697C25.0496 7.38075 26.5954 7.30274 29.7003 7.30264C30.8793 4.07408 31.9719 -1.23483 26.9099 3.35807C27.1981 2.66812 28.2933 1.10858 30.3684 0.38996C32.4435 -0.328656 32.8575 1.78293 32.8051 2.92855C32.2811 6.46956 29.3151 15.8871 21.6434 25.2291C22.0233 24.5391 22.7674 23.0811 22.7046 22.7686H15.5123C15.984 20.9721 14.7106 16.9103 10.7175 16.9103C6.43364 16.9103 5.45109 20.6987 5.6476 22.6124H1.95324C1.66502 21.9874 1.0493 20.1751 0.89209 17.9257ZM2.22835 17.379C1.94538 17.7539 2.11044 18.2122 2.22835 18.3944L5.5297 17.8086C6.15853 16.5588 7.31138 15.7777 7.8092 15.5434C2.73927 15.973 2.58207 16.9103 2.22835 17.379ZM22.7439 9.56796L17.4774 13.2392L26.9099 13.3954L29.268 8.39631C28.6653 8.40932 27.1457 8.42755 25.888 8.39631C24.6304 8.36506 23.2679 9.16439 22.7439 9.56796Z" fill="#2E3D4A"/>
        <path d="M33.3946 5.03756C31.233 15.7777 19.1202 34.0712 17.5167 26.0102C17.2809 27.8979 17.7761 31.1577 21.6434 29.0956C22.5081 28.5618 24.8347 26.6038 27.2243 23.042H40.1938L44.9887 17.6524C45.2638 17.353 45.8376 16.5667 45.9319 15.8168L44.8315 15.6996C44.6349 16.0902 44.0533 16.8713 43.2987 16.8713C42.3554 16.8713 41.9231 16.2464 41.9231 15.3091C41.9231 14.3718 42.7092 13.9421 43.2987 13.9421C43.7703 13.9421 44.3074 14.3587 44.517 14.567C44.0716 14.5931 43.055 14.8795 42.552 15.8168C42.6175 15.986 42.8192 16.3401 43.1022 16.4026C43.338 15.6476 44.4149 14.4733 46.8358 15.8168C49.8621 17.4962 48.1328 19.4099 47.8577 19.6442C47.5826 19.8785 46.0891 20.5034 44.3205 19.3318L43.8489 19.8004C44.6873 20.4253 46.7494 21.3626 48.29 20.1129C50.2158 18.5507 48.7223 16.637 48.0935 15.973C47.5904 15.4419 46.4428 14.8144 45.9319 14.567C45.8386 13.9461 44.0304 11.9701 40.0759 7.77142H33.3946V5.03756Z" fill="#06892B"/>
    </svg>

    <svg id="pointer" viewBox="0 0 17 20" fill="none" xmlns="http://www.w3.org/2000/svg">
        <path d="M8.17896 10C7.07896 10 6.17896 9.1 6.17896 8C6.17896 6.9 7.07896 6 8.17896 6C9.27896 6 10.179 6.9 10.179 8C10.179 9.1 9.27896 10 8.17896 10ZM14.179 8.2C14.179 4.57 11.529 2 8.17896 2C4.82896 2 2.17896 4.57 2.17896 8.2C2.17896 10.54 4.12895 13.64 8.17896 17.34C12.229 13.64 14.179 10.54 14.179 8.2ZM8.17896 0C12.379 0 16.179 3.22 16.179 8.2C16.179 11.52 13.509 15.45 8.17896 20C2.84896 15.45 0.178955 11.52 0.178955 8.2C0.178955 3.22 3.97896 0 8.17896 0Z" fill="#2E3D4A"/>
    </svg>

    <svg id="menu-icon-1" viewBox="0 0 31 31" fill="none" xmlns="http://www.w3.org/2000/svg">
        <path d="M25.5015 17.0181L25.4999 19.2462C25.4994 19.8076 25.3371 20.3284 25.0619 20.7749C24.9702 20.9232 24.8662 21.0637 24.751 21.1949L24.7493 23.7051C24.7493 23.9103 24.707 24.1057 24.6315 24.2836C24.404 24.8177 23.8726 25.1932 23.2538 25.1948L21.7593 25.1989C20.934 25.2013 20.2654 24.5378 20.2659 23.7174L20.2669 22.2318L8.31099 22.2635L8.30994 23.7491C8.30948 24.5695 7.63971 25.2364 6.81443 25.2388L5.31996 25.2429C4.70108 25.2445 4.17019 24.8717 3.94373 24.3391C3.86836 24.1614 3.82646 23.9661 3.82655 23.7614L3.82827 21.2511C3.71308 21.1205 3.60922 20.9805 3.51778 20.8324C3.24335 20.3878 3.08167 19.8676 3.08212 19.3062L3.08363 17.0776C3.08458 16.1259 3.53737 15.2819 4.23938 14.7384C4.4754 14.5556 4.73741 14.4087 5.01676 14.3025L5.54276 12.9967L6.47548 10.681C6.57558 10.4326 6.69262 10.195 6.82607 9.96974C7.09193 9.5191 7.42042 9.116 7.79744 8.77097C7.98611 8.59817 8.18691 8.43988 8.39828 8.2975C8.82122 8.01171 9.28652 7.78805 9.78016 7.63558C10.2738 7.48311 10.7967 7.40158 11.3343 7.40017L17.2659 7.38429C17.8035 7.38288 18.3259 7.46149 18.8197 7.61172C19.5564 7.83545 20.2332 8.21976 20.8007 8.73671C21.366 9.25165 21.8209 9.89621 22.1197 10.64L23.0489 12.9508L23.5731 14.2538C24.132 14.4637 24.6147 14.8345 24.9599 15.319C25.3011 15.7981 25.5022 16.3836 25.5015 17.0181ZM6.82072 16.3252C5.92384 16.3276 5.32585 16.9214 5.32491 17.8102C5.32396 18.6989 5.92159 19.2892 6.81802 19.287C7.7149 19.2846 9.05973 19.4293 9.06022 18.5407C9.06117 17.6519 7.71715 16.3229 6.82072 16.3252ZM20.2726 14.0608L19.3434 11.75C19.2585 11.5388 19.1433 11.3458 19.004 11.1752C18.5857 10.6635 17.9506 10.3529 17.2631 10.3547L11.3315 10.3706C10.8835 10.3718 10.4456 10.5064 10.0744 10.7571C9.70325 11.0078 9.41572 11.363 9.24896 11.7769L8.31625 14.0926L16.6323 14.0702L20.2726 14.0608ZM21.7656 16.2853C20.8687 16.2877 19.5227 17.6243 19.522 18.5124C19.5215 19.4011 20.8665 19.2493 21.7633 19.2469C22.6602 19.2445 23.2582 18.6507 23.2592 17.762C23.2598 16.8738 22.6625 16.2829 21.7656 16.2853Z" fill="#06892B"/>
        <circle cx="22.3562" cy="8.76758" r="8.5" fill="white"/>
        <path d="M28.6272 8.66602C28.6272 12.1876 25.7728 15.041 22.2522 15.041C18.7316 15.041 15.8772 12.1876 15.8772 8.66602C15.8772 5.14648 18.7316 2.29102 22.2522 2.29102C25.7728 2.29102 28.6272 5.14648 28.6272 8.66602ZM22.2522 9.9513C21.5991 9.9513 21.0697 10.4807 21.0697 11.1338C21.0697 11.7868 21.5991 12.3162 22.2522 12.3162C22.9052 12.3162 23.4347 11.7868 23.4347 11.1338C23.4347 10.4807 22.9052 9.9513 22.2522 9.9513ZM21.1296 5.70097L21.3202 9.19694C21.3292 9.36053 21.4644 9.4886 21.6282 9.4886H22.8762C23.04 9.4886 23.1752 9.36053 23.1842 9.19694L23.3748 5.70097C23.3845 5.52427 23.2438 5.37569 23.0668 5.37569H21.4375C21.2606 5.37569 21.1199 5.52427 21.1296 5.70097Z" fill="#06892B"/>
    </svg>

    <svg id="menu-icon-4" viewBox="0 0 22 22" fill="none" xmlns="http://www.w3.org/2000/svg">
        <path fill-rule="evenodd" clip-rule="evenodd" d="M9.87479 0.591115C8.65449 0.706942 7.28965 1.09613 6.23329 1.62952C5.14045 2.18132 3.9965 3.05443 3.21262 3.93502C1.67503 5.6623 0.80255 7.65915 0.591823 9.93339C0.426355 11.7191 0.812674 13.7326 1.63237 15.3565C2.18408 16.4496 3.05703 17.5937 3.93747 18.3777C5.66446 19.9156 7.66096 20.7882 9.93481 20.999C11.7202 21.1645 13.7334 20.7781 15.357 19.9583C16.4499 19.4065 17.5938 18.5334 18.3777 17.6528C19.9153 15.9255 20.7878 13.9286 20.9985 11.6544C21.164 9.86867 20.7777 7.85514 19.958 6.23123C19.4063 5.1382 18.5333 3.99405 17.6529 3.21004C15.9259 1.67218 13.9294 0.799556 11.6555 0.588793C11.1555 0.542446 10.3769 0.543447 9.87479 0.591115ZM11.5385 2.99191C13.0951 3.14352 14.6509 3.80987 15.8762 4.84959C16.9056 5.72306 17.744 6.94453 18.1822 8.20935L18.2782 8.48647L18.1882 8.40386C17.8851 8.12578 15.958 7.41156 14.6367 7.08761C13.2326 6.74337 12.1875 6.61474 10.7952 6.61474C9.40279 6.61474 8.35769 6.74337 6.95359 7.08761C5.63237 7.41156 3.70522 8.12578 3.40213 8.40386L3.31214 8.48647L3.40814 8.20935C3.84636 6.94453 4.6847 5.72306 5.71408 4.84959C7.35055 3.46094 9.45685 2.78911 11.5385 2.99191ZM11.1197 9.0337C12.0592 9.21189 12.7171 10.1336 12.5641 11.0572C12.434 11.8423 11.8434 12.433 11.0584 12.5632C9.90128 12.7549 8.83448 11.6879 9.0262 10.5306C9.19375 9.51927 10.1343 8.8468 11.1197 9.0337ZM10.5055 10.2761C10.3365 10.3653 10.1949 10.6014 10.1949 10.7939C10.1949 10.9925 10.3365 11.2231 10.514 11.3137C10.6008 11.358 10.7274 11.3942 10.7952 11.3942C11.0996 11.3942 11.3954 11.0984 11.3954 10.7939C11.3954 10.5953 11.2539 10.3647 11.0763 10.2741C10.8792 10.1735 10.6986 10.1741 10.5055 10.2761ZM3.40017 12.6992C3.46796 12.7342 3.93955 12.8238 4.44816 12.8982C4.95681 12.9726 5.49899 13.0718 5.65306 13.1186C6.94707 13.5114 8.00274 14.5372 8.42991 15.8168C8.51247 16.064 8.5949 16.4828 8.69274 17.1521C8.83852 18.1491 8.8789 18.2837 9.06662 18.3981C9.28134 18.5289 8.1388 18.1632 7.6173 17.9342C5.5569 17.0294 3.87477 15.1041 3.26968 12.9582C3.13527 12.4816 3.12722 12.4216 3.2145 12.5462C3.24883 12.5953 3.33239 12.6641 3.40017 12.6992ZM18.3384 12.8984C17.7487 15.0635 16.0513 17.0215 13.973 17.9342C13.4515 18.1632 12.309 18.5289 12.5237 18.3981C12.7114 18.2837 12.7518 18.1491 12.8976 17.1521C12.9954 16.4828 13.0779 16.064 13.1604 15.8168C13.5876 14.5372 14.6433 13.5114 15.9373 13.1186C16.0913 13.0718 16.6335 12.9726 17.1422 12.8982C18.0631 12.7634 18.2742 12.7044 18.3672 12.5555C18.4535 12.4172 18.4464 12.5017 18.3384 12.8984Z" fill="#06892B"/>
    </svg>

    <svg id="menu-icon-3" viewBox="0 0 23 19" fill="none" xmlns="http://www.w3.org/2000/svg">
        <path d="M22.6453 10.4575L22.6437 12.6857C22.6432 13.2471 22.4809 13.7679 22.2057 14.2143C22.114 14.3627 22.01 14.5032 21.8948 14.6343L21.8931 17.1446C21.8931 17.3498 21.8508 17.5452 21.7753 17.7231C21.5478 18.2571 21.0164 18.6326 20.3976 18.6343L18.9031 18.6383C18.0778 18.6407 17.4092 17.9772 17.4097 17.1568L17.4107 15.6712L5.45479 15.703L5.45374 17.1886C5.45328 18.009 4.78351 18.6759 3.95822 18.6782L2.46376 18.6823C1.84488 18.684 1.31399 18.3111 1.08753 17.7786C1.01215 17.6009 0.970254 17.4055 0.970347 17.2008L0.972071 14.6905C0.856884 14.56 0.753018 14.4199 0.661579 14.2719C0.387146 13.8272 0.225466 13.3071 0.225918 12.7457L0.227432 10.5171C0.228379 9.56535 0.681167 8.72133 1.38318 8.17788C1.6192 7.99505 1.88121 7.84814 2.16056 7.74199L2.68656 6.43619L3.61927 4.12049C3.71938 3.87204 3.83642 3.63442 3.96986 3.4092C4.23573 2.95855 4.56422 2.55545 4.94123 2.21042C5.12991 2.03762 5.33071 1.87934 5.54207 1.73695C5.96502 1.45117 6.43032 1.22751 6.92395 1.07503C7.41759 0.922562 7.94047 0.841031 8.47813 0.839619L14.4097 0.823745C14.9473 0.822333 15.4697 0.900945 15.9635 1.05117C16.7002 1.2749 17.377 1.65922 17.9445 2.17616C18.5098 2.6911 18.9647 3.33566 19.2635 4.07942L20.1927 6.39022L20.7169 7.69323C21.2758 7.90317 21.7585 8.274 22.1037 8.75846C22.4449 9.23754 22.646 9.82305 22.6453 10.4575ZM3.96452 9.76466C3.06764 9.76707 2.46965 10.3609 2.46871 11.2496C2.46776 12.1384 3.06539 12.7287 3.96182 12.7264C4.8587 12.724 6.20353 12.8688 6.20402 11.9801C6.20497 11.0914 4.86095 9.76238 3.96452 9.76466ZM17.4164 7.50022L16.4872 5.18942C16.4023 4.97822 16.2871 4.7853 16.1478 4.61469C15.7295 4.10298 15.0944 3.79232 14.4069 3.79416L8.47533 3.81004C8.0273 3.81126 7.58945 3.94589 7.21825 4.19656C6.84705 4.44723 6.55952 4.80244 6.39276 5.21639L5.46005 7.53209L13.7761 7.50963L17.4164 7.50022ZM18.9094 9.72476C18.0125 9.72716 16.6665 11.0637 16.6658 11.9519C16.6653 12.8405 18.0103 12.6888 18.9071 12.6864C19.804 12.684 20.402 12.0902 20.403 11.2014C20.4036 10.3132 19.8063 9.72235 18.9094 9.72476Z" fill="#06892B"/>
    </svg>

    <svg id="menu-icon-2" viewBox="0 0 25 31" fill="none" xmlns="http://www.w3.org/2000/svg">
        <path d="M22.3219 19.3922L22.3205 21.2932C22.3201 21.7722 22.1816 22.2166 21.9468 22.5975C21.8686 22.724 21.7799 22.8439 21.6815 22.9558L21.6801 25.0975C21.6801 25.2726 21.644 25.4393 21.5796 25.5911C21.3855 26.0468 20.9321 26.3671 20.4041 26.3685L19.129 26.372C18.4249 26.374 17.8544 25.8079 17.8548 25.108L17.8557 23.8405L7.65493 23.8676L7.65403 25.1351C7.65364 25.835 7.08219 26.404 6.37806 26.4061L5.10299 26.4096C4.57496 26.4109 4.122 26.0929 3.92879 25.6385C3.86448 25.4869 3.82873 25.3202 3.82881 25.1455L3.83028 23.0038C3.732 22.8924 3.64338 22.7729 3.56537 22.6466C3.33122 22.2672 3.19328 21.8234 3.19366 21.3444L3.19495 19.443C3.19576 18.631 3.58208 17.9108 4.18103 17.4472C4.38241 17.2912 4.60596 17.1658 4.8443 17.0753L5.29308 15.9612L6.08887 13.9854C6.17428 13.7734 6.27414 13.5707 6.38799 13.3785C6.61483 12.994 6.8951 12.6501 7.21676 12.3557C7.37774 12.2083 7.54906 12.0733 7.7294 11.9518C8.09026 11.7079 8.48725 11.5171 8.90842 11.387C9.32959 11.2569 9.77571 11.1874 10.2344 11.1862L15.2952 11.1726C15.7539 11.1714 16.1996 11.2385 16.6209 11.3667C17.2495 11.5576 17.8269 11.8855 18.3112 12.3265C18.7934 12.7659 19.1816 13.3158 19.4365 13.9504L20.2293 15.9219L20.6765 17.0337C21.1534 17.2128 21.5653 17.5292 21.8597 17.9425C22.1509 18.3513 22.3224 18.8508 22.3219 19.3922ZM6.38343 18.801C5.61822 18.8031 5.10801 19.3097 5.10721 20.068C5.1064 20.8263 5.61629 21.3299 6.38113 21.328C7.14635 21.3259 8.29375 21.4494 8.29417 20.6913C8.29498 19.933 7.14827 18.7991 6.38343 18.801ZM17.8606 16.869L17.0678 14.8974C16.9954 14.7172 16.897 14.5526 16.7782 14.4071C16.4213 13.9705 15.8794 13.7054 15.2928 13.707L10.2321 13.7205C9.84979 13.7216 9.47622 13.8364 9.15951 14.0503C8.8428 14.2642 8.59749 14.5673 8.45521 14.9204L7.65941 16.8962L14.7547 16.877L17.8606 16.869ZM19.1344 18.767C18.3692 18.769 17.2207 19.9094 17.2202 20.6672C17.2198 21.4253 18.3672 21.2959 19.1325 21.2938C19.8977 21.2918 20.4079 20.7851 20.4087 20.0269C20.4092 19.2691 19.8996 18.7649 19.1344 18.767Z" fill="#06892B"/>
        <path fill-rule="evenodd" clip-rule="evenodd" d="M10.7671 3.42066C10.447 2.53765 9.857 1.77338 9.07784 1.2324C8.29868 0.691416 7.36843 0.400148 6.41433 0.398438C3.8611 0.398438 1.80005 2.42333 1.80005 4.93177C1.80005 7.4251 3.8611 9.4651 6.41433 9.4651C8.41386 9.4651 10.1211 8.19577 10.7671 6.44288H18.7191V9.4651H21.7953V6.44288H23.3334V3.42066H10.7671ZM4.87624 4.93177C4.87624 5.76288 5.56838 6.44288 6.41433 6.44288C7.26029 6.44288 7.95243 5.76288 7.95243 4.93177C7.95243 4.10066 7.26029 3.42066 6.41433 3.42066C5.56838 3.42066 4.87624 4.10066 4.87624 4.93177Z" fill="#06892B"/>
    </svg>

</svg>