<svg width="18" height="18" viewBox="0 0 18 18" fill="none" xmlns="http://www.w3.org/2000/svg">
<path d="M17.2815 8.02344L13.7502 10.9609L14.8674 15.5C14.9188 15.6903 14.9258 15.8898 14.888 16.0832C14.8502 16.2766 14.7686 16.4588 14.6494 16.6157C14.5302 16.7727 14.3766 16.9002 14.2004 16.9884C14.0242 17.0767 13.8301 17.1235 13.633 17.125C13.3917 17.1239 13.1557 17.0534 12.9533 16.9219L9.00803 14.4297H8.9924L5.32834 16.75C5.09164 16.8993 4.81577 16.9746 4.53602 16.9663C4.25628 16.9579 3.98539 16.8663 3.75802 16.7031C3.52378 16.5322 3.34637 16.2948 3.24884 16.0217C3.15131 15.7486 3.13818 15.4525 3.21115 15.1719L4.26584 11.0234L0.718961 8.02344C0.517731 7.85529 0.371483 7.63072 0.299074 7.37868C0.226665 7.12664 0.231415 6.85869 0.312711 6.60938C0.391877 6.36383 0.542904 6.14768 0.746253 5.9889C0.949603 5.83012 1.19592 5.73601 1.45334 5.71875L6.06271 5.42188L7.81271 1.0625C7.90656 0.823753 8.06992 0.618675 8.28164 0.473816C8.49336 0.328956 8.74368 0.250987 9.00021 0.25C9.25674 0.250987 9.50707 0.328956 9.71879 0.473816C9.9305 0.618675 10.0939 0.823753 10.1877 1.0625L11.9065 5.39844L16.5471 5.71875C16.8048 5.73496 17.0516 5.82868 17.2552 5.98761C17.4587 6.14654 17.6095 6.36327 17.6877 6.60938C17.769 6.85869 17.7738 7.12664 17.7014 7.37868C17.6289 7.63072 17.4827 7.85529 17.2815 8.02344Z" fill="#FFBB0C"/>
</svg>
