<svg width="50" height="30" viewBox="0 0 50 30" fill="none" xmlns="http://www.w3.org/2000/svg">
<path fill-rule="evenodd" clip-rule="evenodd" d="M6.35503 22.1047C6.35503 18.9803 8.59523 17.6914 10.5996 17.6914C12.604 17.6914 14.9621 19.0974 14.9621 22.1047C14.9621 25.1119 12.3289 26.1664 10.7175 26.1664C9.10616 26.1664 6.35503 25.2291 6.35503 22.1047ZM13.0756 22.1047C13.0756 20.7378 11.9752 19.527 10.6782 19.527C9.22406 19.527 8.20222 20.5815 8.20222 22.1047C8.20222 23.6278 9.81359 24.2918 10.7175 24.2918C11.6215 24.2918 13.0756 23.4716 13.0756 22.1047Z" fill="#2E3D4A"/>
<path fill-rule="evenodd" clip-rule="evenodd" d="M0.89209 17.9257C1.33751 17.0404 2.84146 15.1606 5.29389 14.7231C7.74632 14.2857 13.7045 13.213 16.377 12.7313C18.3552 11.1431 22.6574 7.88066 24.0408 7.53697C25.0496 7.38075 26.5954 7.30274 29.7003 7.30264C30.8793 4.07408 31.9719 -1.23483 26.9099 3.35807C27.1981 2.66812 28.2933 1.10858 30.3684 0.38996C32.4435 -0.328656 32.8575 1.78293 32.8051 2.92855C32.2811 6.46956 29.3151 15.8871 21.6434 25.2291C22.0233 24.5391 22.7674 23.0811 22.7046 22.7686H15.5123C15.984 20.9721 14.7106 16.9103 10.7175 16.9103C6.43364 16.9103 5.45109 20.6987 5.6476 22.6124H1.95324C1.66502 21.9874 1.0493 20.1751 0.89209 17.9257ZM2.22835 17.379C1.94538 17.7539 2.11044 18.2122 2.22835 18.3944L5.5297 17.8086C6.15853 16.5588 7.31138 15.7777 7.8092 15.5434C2.73927 15.973 2.58207 16.9103 2.22835 17.379ZM22.7439 9.56796L17.4774 13.2392L26.9099 13.3954L29.268 8.39631C28.6653 8.40932 27.1457 8.42755 25.888 8.39631C24.6304 8.36506 23.2679 9.16439 22.7439 9.56796Z" fill="#2E3D4A"/>
<path d="M33.3946 5.03756C31.233 15.7777 19.1202 34.0712 17.5167 26.0102C17.2809 27.8979 17.7761 31.1577 21.6434 29.0956C22.5081 28.5618 24.8347 26.6038 27.2243 23.042H40.1938L44.9887 17.6524C45.2638 17.353 45.8376 16.5667 45.9319 15.8168L44.8315 15.6996C44.6349 16.0902 44.0533 16.8713 43.2987 16.8713C42.3554 16.8713 41.9231 16.2464 41.9231 15.3091C41.9231 14.3718 42.7092 13.9421 43.2987 13.9421C43.7703 13.9421 44.3074 14.3587 44.517 14.567C44.0716 14.5931 43.055 14.8795 42.552 15.8168C42.6175 15.986 42.8192 16.3401 43.1022 16.4026C43.338 15.6476 44.4149 14.4733 46.8358 15.8168C49.8621 17.4962 48.1328 19.4099 47.8577 19.6442C47.5826 19.8785 46.0891 20.5034 44.3205 19.3318L43.8489 19.8004C44.6873 20.4253 46.7494 21.3626 48.29 20.1129C50.2158 18.5507 48.7223 16.637 48.0935 15.973C47.5904 15.4419 46.4428 14.8144 45.9319 14.567C45.8386 13.9461 44.0304 11.9701 40.0759 7.77142H33.3946V5.03756Z" fill="#06892B"/>
</svg>
